# xmcd CD database file
#
# Track frame offsets:
#	150
#	14100
#	39662
#	53297
#	71155
#	87502
#	101565
#	120055
#	125280
#	142177
#	167942
#	185812
#
# Disc length: 2858 seconds
#
# Revision: 1
# Processed by: cddbd v1.5.2PL0 Copyright (c) Steve Scherf et al.
# Submitted via: CDex 1.70beta2
#
DISCID=aa0b280c
DTITLE=Takahito Eguchi and Noriko Matsueda - Piano Collections FINAL FANTASY X-2
DYEAR=2004
DGENRE=Soundtrack
TTITLE0=Wind Crest ~The Three Trails~
TTITLE1=Yuna's Ballad
TTITLE2=Paine's Theme
TTITLE3=Creature Create
TTITLE4=Calm Lands
TTITLE5=Zanarkand Ruins
TTITLE6=Akagi Party
TTITLE7=From "Cave's Nightmare"
TTITLE8=Demise
TTITLE9=1000 Words
TTITLE10=Epilogue ~Reunion~
TTITLE11=Eternity ~Memories of Light and Waves~
EXTD=YEAR: 2004
EXTT0=
EXTT1=
EXTT2=
EXTT3=
EXTT4=
EXTT5=
EXTT6=
EXTT7=
EXTT8=
EXTT9=
EXTT10=
EXTT11=
PLAYORDER=
